#!OML:ASF I:\Actors\actors\Patient Classification 1\Patient 1\Session 1\Subject1.ASF
:FULLY-SPECIFIED
:DEGREES
633
root 0.793293 17.6502 8.14671 4.66611 0.692059 -11.0314
lowerback -0.517579 0.665857 4.92726
upperback -3.19829 0.993555 1.73434
thorax -2.95406 0.392123 -0.992702
lowerneck -15.8536 -6.68338 -5.68201
upperneck 22.4084 -12.3212 16.466
head 11.4074 -4.28838 5.11703
rclavicle 6.90777e-015 1.82882e-014
rhumerus -25.0164 53.229 -122.291
rradius 134.702
rwrist 16.3536
rhand -18.5219 -56.0842
rfingers 7.12502
rthumb 7.76662 -85.9216
lclavicle 6.90777e-015 1.82882e-014
lhumerus -229.317 -80.4009 322.327
lradius 91.0624
lwrist 71.217
lhand 61.6342 -2.16025
lfingers 7.12502
lthumb 74.8747 -40.4809
rfemur -7.58832 17.3595 28.8786
rtibia 14.3743
rfoot -15.4113 -17.7035
rtoes -0.717269
lfemur 0.758306 -28.7193 -5.27985
ltibia 0.578988
lfoot -10.9871 35.6689
ltoes -4.60315
634
root 0.785451 17.6548 8.16288 4.91686 0.638879 -11.1314
lowerback -1.09735 0.679725 4.84088
upperback -3.11759 0.967899 1.69648
thorax -2.54513 0.39048 -0.975607
lowerneck -15.9984 -6.62665 -5.72174
upperneck 22.5866 -12.3357 16.7344
head 11.5339 -4.25329 5.2299
rclavicle -1.19519e-014 -1.35174e-014
rhumerus -25.1738 53.1734 -122.674
rradius 134.593
rwrist 15.8632
rhand -18.7094 -56.4842
rfingers 7.12502
rthumb 7.58567 -86.3281
lclavicle -1.19519e-014 -1.35174e-014
lhumerus -232.455 -78.544 325.771
lradius 91.9918
lwrist 69.2579
lhand 60.647 -2.69176
lfingers 7.12502
lthumb 74.7291 -37.4173
rfemur -7.782 17.1144 28.956
rtibia 14.3139
rfoot -15.3957 -17.3432
rtoes -0.503374
lfemur 0.44391 -28.3678 -5.01126
ltibia 0.724246
lfoot -10.9656 35.4596
ltoes -4.88852
635
root 0.7781 17.6623 8.17072 5.16415 0.511406 -10.9531
lowerback -1.4008 0.632049 4.32802
upperback -3.15761 0.884664 1.68434
thorax -2.42487 0.362763 -0.698159
lowerneck -16.0234 -6.50726 -5.6964
upperneck 22.7829 -12.2046 16.7349
head 11.5935 -4.1819 5.25629
rclavicle 2.28602e-015 -3.49861e-014
rhumerus -25.2597 53.388 -122.821
rradius 134.561
rwrist 15.3586
rhand -18.7217 -57.3183
rfingers 7.12502
rthumb 7.57378 -87.1627
lclavicle 2.28602e-015 -3.49861e-014
lhumerus -233.599 -77.6549 327.1
lradius 92.9677
lwrist 68.1072
lhand 58.1469 -4.08293
lfingers 7.12502
lthumb 74.0963 -30.1267
rfemur -8.06375 17.0075 28.6746
rtibia 14.3221
rfoot -15.3786 -17.0937
rtoes -0.152915
lfemur 0.136742 -28.2261 -5.07346
ltibia 0.857253
lfoot -10.9903 35.4844
ltoes -5.06557
636
root 0.773565 17.667 8.17656 5.28005 0.448514 -11.0469
lowerback -1.58873 0.520007 4.13554
upperback -3.15226 0.72478 1.75021
thorax -2.32293 0.290008 -0.520459
lowerneck -16.2422 -6.32796 -5.58506
upperneck 23.2469 -12.0369 16.6674
head 11.7797 -4.07151 5.25655
rclavicle 2.85753e-015 -8.74653e-015
rhumerus -25.2336 53.5904 -122.843
rradius 134.453
rwrist 14.8288
rhand -18.6792 -57.6673
rfingers 7.12502
rthumb 7.61483 -87.5103
lclavicle 2.85753e-015 -8.74653e-015
lhumerus -235.174 -78.1267 328.481
lradius 93.9155
lwrist 66.5485
lhand 56.6494 -5.50299
lfingers 7.12502
lthumb 73.5503 -26.7375
rfemur -8.16212 16.9282 28.7541
rtibia 14.281
rfoot -15.3023 -16.9564
rtoes -0.344782
lfemur 0.0327307 -28.2005 -4.8858
ltibia 0.863245
lfoot -11.028 35.5435
ltoes -5.06591
637
root 0.771168 17.6716 8.18089 5.37678 0.257486 -10.9566
lowerback -1.72177 0.428163 3.82161
upperback -3.13989 0.59451 1.7549
thorax -2.24227 0.233456 -0.33906
lowerneck -16.5537 -6.0281 -5.0407
upperneck 23.7709 -11.6811 16.1171
head 11.9153 -3.88367 5.0259
rclavicle 6.95746e-015 -1.03368e-014
rhumerus -24.7485 53.7665 -122.396
rradius 134.288
rwrist 13.9346
rhand -18.4774 -57.5936
rfingers 7.12502
rthumb 7.8096 -87.4294
lclavicle 6.95746e-015 -1.03368e-014
lhumerus -236.394 -79.8118 329.119
lradius 94.9379
lwrist 66.2142
lhand 53.9733 -6.08478
lfingers 7.12502
lthumb 72.3063 -19.5917
rfemur -8.2602 17.0683 28.6073
rtibia 14.2379
rfoot -15.1833 -16.9157
rtoes -0.902334
lfemur 0.0373469 -28.4061 -4.99612
ltibia 0.862939
lfoot -11.2876 35.8763
ltoes -4.59389
638
root 0.771318 17.6742 8.17622 5.3711 -0.214499 -10.6232
lowerback -1.25867 0.314736 3.43238
upperback -3.31172 0.470783 1.65594
thorax -2.68515 0.171668 -0.22566
lowerneck -16.7408 -5.53386 -3.74045
upperneck 24.2302 -11.0075 14.7538
head 11.8567 -3.58692 4.4002
rclavicle -7.20594e-015 7.95139e-015
rhumerus -24.2623 53.9118 -122.046
rradius 134.156
rwrist 12.5949
rhand -17.8597 -57.5946
rfingers 7.12502
rthumb 8.40573 -87.4073
lclavicle -7.20594e-015 7.95139e-015
lhumerus -238.065 -82.7166 329.891
lradius 95.8155
lwrist 66.5002
lhand 50.3523 -6.59083
lfingers 7.12502
lthumb 70.1805 -11.4406
rfemur -8.32075 17.481 28.1675
rtibia 14.2212
rfoot -15.0351 -16.9141
rtoes -1.04465
lfemur 0.24951 -28.8247 -5.52942
ltibia 0.883065
lfoot -11.794 36.5969
ltoes -3.56515
639
root 0.777626 17.6761 8.1933 5.44574 -0.570966 -10.633
lowerback -1.17602 0.110867 3.47869
upperback -3.45153 0.208668 1.71484
thorax -2.88432 0.0363508 -0.187837
lowerneck -16.8431 -4.997 -2.36634
upperneck 24.5167 -10.2912 13.4607
head 11.7368 -3.27052 3.795
rclavicle 8.22472e-015 2.38542e-015
rhumerus -24.0671 54.1312 -121.927
rradius 134.141
rwrist 11.5977
rhand -17.1228 -57.3524
rfingers 7.12502
rthumb 9.1168 -87.1354
lclavicle 8.22472e-015 2.38542e-015
lhumerus -238.315 -85.8429 329.083
lradius 95.9017
lwrist 66.2504
lhand 47.4932 -3.94554
lfingers 7.12502
lthumb 68.2315 -3.27753
rfemur -8.19337 17.6688 28.1478
rtibia 13.9128
rfoot -14.8546 -16.7664
rtoes -1.03155
lfemur 0.601957 -29.2833 -5.7649
ltibia 0.676459
lfoot -12.2378 37.3308
ltoes -2.66405
640
root 0.784699 17.678 8.21286 5.61639 -0.889845 -10.905
lowerback -1.34303 -0.0162119 3.91601
upperback -3.52933 0.0352459 1.73275
thorax -2.87768 -0.0626613 -0.410994
lowerneck -17.1283 -4.68468 -1.76823
upperneck 24.747 -9.99693 13.2466
head 11.8116 -3.0843 3.6625
rclavicle 2.08724e-015 4.37326e-014
rhumerus -24.0758 53.9972 -122.206
rradius 134.413
rwrist 11.2903
rhand -16.7052 -56.8641
rfingers 7.12502
rthumb 9.51976 -86.6291
lclavicle 2.08724e-015 4.37326e-014
lhumerus -236.802 -88.7465 326.471
lradius 95.0389
lwrist 67.2996
lhand 47.256 -4.72871
lfingers 7.12502
lthumb 68.0612 -3.64884
rfemur -8.1458 17.8174 28.4251
rtibia 13.6338
rfoot -14.7195 -16.5491
rtoes -1.10133
lfemur 0.844405 -29.5201 -5.59282
ltibia 0.416262
lfoot -12.5234 37.865
ltoes -2.19714
641
root 0.790399 17.6772 8.23617 5.82666 -1.2487 -11.2952
lowerback -1.76012 -0.000267973 4.5405
upperback -3.49299 0.0303955 1.68697
thorax -2.60843 -0.0775259 -0.807084
lowerneck -17.7302 -4.65956 -2.10505
upperneck 25.0744 -10.1535 13.978
head 12.1532 -3.05672 3.98019
rclavicle -1.26725e-014 1.98785e-014
rhumerus -24.2108 53.9234 -122.623
rradius 134.724
rwrist 11.4494
rhand -16.6479 -56.905
rfingers 7.12502
rthumb 9.57511 -86.6674
lclavicle -1.26725e-014 1.98785e-014
lhumerus -215.894 -91.681 304.716
lradius 93.4702
lwrist 68.4989
lhand 54.1382 -2.93999
lfingers 7.12502
lthumb 72.3919 -16.8899
rfemur -8.12448 17.897 28.8628
rtibia 13.4232
rfoot -14.6537 -16.2105
rtoes -1.39514
lfemur 1.08939 -29.5365 -5.25997
ltibia 0.136219
lfoot -12.6698 38.2457
ltoes -2.13067
642
root 0.792487 17.6709 8.25076 5.99027 -1.85246 -11.4435
lowerback -1.91339 1.67321 5.79793
upperback -3.24414 2.20919 -0.0854706
thorax -2.05425 0.975574 -3.32909
lowerneck -19.1849 -6.06483 -0.296941
upperneck 24.5726 -13.1168 15.189
head 12.5889 -3.99948 3.58183
rclavicle -2.0276e-014 3.18055e-015
rhumerus -20.455 50.1789 -120.068
rradius 135.055
rwrist 12.7938
rhand -16.705 -57.1856
rfingers 7.12502
rthumb 9.52 -86.9506
lclavicle -2.0276e-014 3.18055e-015
lhumerus -158.987 -87.1714 246.711
lradius 92.7198
lwrist 72.5342
lhand 56.8024 2.1099
lfingers 7.12502
lthumb 73.6114 -19.6008
rfemur -8.18816 18.0974 29.0237
rtibia 13.3944
rfoot -14.5971 -15.7975
rtoes -1.96432
lfemur 1.41008 -29.5505 -5.28153
ltibia -0.016585
lfoot -13.2031 38.7833
ltoes -1.35274
643
root 0.792449 17.6611 8.25626 6.11407 -2.56269 -11.3963
lowerback -2.01765 1.65707 5.56112
upperback -3.3406 2.18884 0.178408
thorax -2.11469 0.970105 -2.92287
lowerneck -18.7096 -5.91651 -1.35022
upperneck 24.4917 -12.7554 15.9093
head 12.5562 -3.88421 4.11265
rclavicle 2.40032e-014 -1.11319e-014
rhumerus -21.9967 50.8661 -121.244
rradius 135.336
rwrist 13.3132
rhand -16.7987 -57.0134
rfingers 7.12502
rthumb 9.42956 -86.7824
lclavicle 2.40032e-014 -1.11319e-014
lhumerus -135.288 -87.2005 222.76
lradius 91.9804
lwrist 74.6919
lhand 54.0412 1.88965
lfingers 7.12502
lthumb 72.3417 -11.7991
rfemur -8.31971 18.3382 28.9409
rtibia 13.4565
rfoot -14.5266 -15.3459
rtoes -2.61666
lfemur 1.67807 -29.4637 -5.52665
ltibia -0.0119253
lfoot -13.8925 39.2861
ltoes -0.347925
644
root 0.792192 17.6521 8.25828 6.21492 -3.09987 -11.2592
lowerback -2.15479 1.61857 5.17441
upperback -3.38678 2.13694 0.489536
thorax -2.11307 0.956015 -2.38335
lowerneck -18.3019 -5.71991 -2.14898
upperneck 24.4796 -12.2765 16.1597
head 12.4801 -3.74202 4.4407
rclavicle 2.18663e-015 -9.54166e-015
rhumerus -23.2098 51.4358 -122.1
rradius 135.411
rwrist 13.0926
rhand -16.9479 -56.8057
rfingers 7.12502
rthumb 9.28558 -86.5812
lclavicle 2.18663e-015 -9.54166e-015
lhumerus -124.946 -87.493 212.851
lradius 91.8715
lwrist 73.3988
lhand 54.0075 1.20822
lfingers 7.12502
lthumb 72.3242 -12.3903
rfemur -8.44978 18.4945 28.7487
rtibia 13.508
rfoot -14.5034 -14.9701
rtoes -2.8548
lfemur 1.78216 -29.156 -5.75708
ltibia 0.0309243
lfoot -14.0763 39.4665
ltoes -0.126813
